<svg id="PRINT" xmlns="http://www.w3.org/2000/svg" xmlns:xlink="http://www.w3.org/1999/xlink" viewBox="0 0 841.32 601"><defs><style>.cls-1{fill:url(#Blanco_Negro_2);filter:url(#luminosity-invert);}.cls-2,.cls-4{fill:none;}.cls-3{clip-path:url(#clip-path);}.cls-4{stroke:#000;stroke-miterlimit:10;}.cls-5{fill:#262424;}.cls-6{fill:url(#Degradado_sin_nombre_3);}.cls-7{fill:url(#Degradado_sin_nombre_3-2);}.cls-8{clip-path:url(#clip-path-2);}.cls-9{fill:url(#radial-gradient);}.cls-10{mask:url(#mask);}.cls-11{opacity:0.16;}.cls-12{fill:#fff;}.cls-13{fill:url(#Degradado_sin_nombre_3-3);}.cls-14{fill:url(#Degradado_sin_nombre_3-4);}.cls-15{fill:url(#Degradado_sin_nombre_3-5);}.cls-16{clip-path:url(#clip-path-3);}.cls-17{fill:url(#Degradado_sin_nombre_4);}.cls-18{fill:#1b1d1e;}</style><linearGradient id="Blanco_Negro_2" x1="-385.81" y1="260.65" x2="488.34" y2="260.65" gradientTransform="matrix(-1.58, -0.02, -0.01, -2.2, 619.79, 741.51)" gradientUnits="userSpaceOnUse"><stop offset="0" stop-color="#fff"/><stop offset="1" stop-color="#191b1d"/></linearGradient><clipPath id="clip-path"><rect class="cls-2" x="-4.5" y="-5.69" width="849.83" height="612.38"/></clipPath><linearGradient id="Degradado_sin_nombre_3" x1="-41.4" y1="51.55" x2="897.89" y2="51.55" gradientUnits="userSpaceOnUse"><stop offset="0" stop-color="#f3d240"/><stop offset="0.05" stop-color="#f1cb3f"/><stop offset="0.13" stop-color="#edb83d"/><stop offset="0.22" stop-color="#e59939"/><stop offset="0.33" stop-color="#da6d34"/><stop offset="0.44" stop-color="#cd352e"/><stop offset="0.47" stop-color="#c9262c"/><stop offset="0.61" stop-color="#b1284a"/><stop offset="0.87" stop-color="#8c2c78"/><stop offset="1" stop-color="#7d2d8a"/></linearGradient><linearGradient id="Degradado_sin_nombre_3-2" x1="708.47" y1="-132.42" x2="478.37" y2="266.11" gradientTransform="translate(22.86 -43.44) rotate(1.68)" xlink:href="#Degradado_sin_nombre_3"/><clipPath id="clip-path-2"><polygon class="cls-2" points="886.28 97.74 -173.46 -31.8 328.36 -33.06 886.28 -21.34 886.28 97.74"/></clipPath><radialGradient id="radial-gradient" cx="264.95" cy="947.42" r="393.19" gradientTransform="translate(216.61 -712.14) scale(1.07 1)" gradientUnits="userSpaceOnUse"><stop offset="0" stop-color="#2d2f31"/><stop offset="1" stop-color="#0f1011"/></radialGradient><filter id="luminosity-invert" filterUnits="userSpaceOnUse" color-interpolation-filters="sRGB"><feColorMatrix values="-1 0 0 0 1 0 -1 0 0 1 0 0 -1 0 1 0 0 0 1 0"/></filter><mask id="mask" x="-155.2" y="-320.37" width="1380.73" height="977.24" maskUnits="userSpaceOnUse"><polygon class="cls-1" points="-155.2 -320.37 1222.48 -283.45 1225.53 656.87 -152.15 619.94 -155.2 -320.37"/></mask><linearGradient id="Degradado_sin_nombre_3-3" x1="-4.5" y1="27.86" x2="547.91" y2="27.86" xlink:href="#Degradado_sin_nombre_3"/><linearGradient id="Degradado_sin_nombre_3-4" x1="527.39" y1="1930.21" x2="523.49" y2="2028.49" gradientTransform="matrix(1, 0.04, 0.04, -1, -70.13, 2563.71)" xlink:href="#Degradado_sin_nombre_3"/><linearGradient id="Degradado_sin_nombre_3-5" x1="-26.34" y1="2037.62" x2="526.08" y2="2037.62" gradientTransform="matrix(1, 0, 0, -1, 0, 2621.5)" xlink:href="#Degradado_sin_nombre_3"/><clipPath id="clip-path-3"><path class="cls-2" d="M305.77,100.05l-15.61,41.83h-.3l-15.51-41.83h-6.94v36.83c-.08,26,44.83,26,44.91,0V100.05Z"/></clipPath><linearGradient id="Degradado_sin_nombre_4" x1="29.71" y1="602.92" x2="30.95" y2="602.92" gradientTransform="translate(-816.38 -21859.21) scale(36.47)" gradientUnits="userSpaceOnUse"><stop offset="0" stop-color="#f3d340"/><stop offset="0.05" stop-color="#f1cc3f"/><stop offset="0.13" stop-color="#edb93d"/><stop offset="0.22" stop-color="#e69a39"/><stop offset="0.32" stop-color="#dc6e33"/><stop offset="0.43" stop-color="#cf372c"/><stop offset="0.47" stop-color="#cb242a"/><stop offset="0.62" stop-color="#b12749"/><stop offset="0.87" stop-color="#8b2a78"/><stop offset="1" stop-color="#7c2c8a"/></linearGradient></defs><title>RECONOCIMIENTO</title><g class="cls-3"><rect class="cls-4" x="171.33" y="-60.65" width="497.79" height="722.78" transform="translate(721.01 -119.45) rotate(90.01)"/><rect class="cls-4" x="183.74" y="-71.51" width="472.98" height="744.5" transform="translate(721.01 -119.45) rotate(90.01)"/><path class="cls-5" d="M586.69,512.27v9.89A5.91,5.91,0,0,1,585,526.7a8.4,8.4,0,0,1-9.86,0,5.88,5.88,0,0,1-1.73-4.54v-9.89l.17-.16H575a2.07,2.07,0,0,1,2.34,2.34v7.76a3.84,3.84,0,0,0,.61,2.39,3.2,3.2,0,0,0,4.19,0,3.84,3.84,0,0,0,.62-2.39v-9.94a11.54,11.54,0,0,1,2-.14A11.79,11.79,0,0,1,586.69,512.27Z"/><path class="cls-5" d="M596.15,524.87l3.23-12.6a7.12,7.12,0,0,1,1.53-.14,6.74,6.74,0,0,1,2,.25l.15.19L598.47,528c-.94.09-1.88.14-2.82.14a4.68,4.68,0,0,1-2-.33,2.22,2.22,0,0,1-1-1.32l-4.09-13.85a6.33,6.33,0,0,1,2.2-.53,2.26,2.26,0,0,1,1.52.44,2.83,2.83,0,0,1,.77,1.38l1.9,6.54c.29,1,.6,2.42.93,4.18C595.91,524.78,596,524.87,596.15,524.87Z"/><path class="cls-5" d="M611,523h-1.95V528a11.79,11.79,0,0,1-2,.14,11.46,11.46,0,0,1-2-.14V512.38l.17-.16,3.56-.07,2.16,0a8.44,8.44,0,0,1,2.48.35,5.25,5.25,0,0,1,1.91,1,4.73,4.73,0,0,1,1.22,1.71,6.15,6.15,0,0,1,.43,2.35,5.81,5.81,0,0,1-.45,2.36,4.75,4.75,0,0,1-1.23,1.71,5.38,5.38,0,0,1-1.92,1A8,8,0,0,1,611,523Zm-1.95-8.11v5.35l1.1,0h.53a2.63,2.63,0,0,0,1.12-.22,2,2,0,0,0,.72-.58,2.37,2.37,0,0,0,.4-.83,4.23,4.23,0,0,0,.12-1,4.07,4.07,0,0,0-.12-1,2.77,2.77,0,0,0-.39-.85,1.86,1.86,0,0,0-.68-.59,2.19,2.19,0,0,0-1-.21h-1C609.56,515,609.3,515,609.07,514.93Z"/><path class="cls-5" d="M619.91,525a4.81,4.81,0,0,1,.32,1.84,4.93,4.93,0,0,1-.29,1.64,5.39,5.39,0,0,1-.87,1.52,6,6,0,0,1-1.39,1.24,6.84,6.84,0,0,1-1.86.83,1.38,1.38,0,0,1-.69-.59,1.54,1.54,0,0,1-.22-.88v-.18a3.7,3.7,0,0,0,1.53-.9,2.44,2.44,0,0,0,.76-1.4,2.39,2.39,0,0,1-1.06-.36,3.5,3.5,0,0,1-.25-.69,4.38,4.38,0,0,1,0-.67,3.28,3.28,0,0,1,.29-1.4,4.4,4.4,0,0,1,1-.34,4.8,4.8,0,0,1,.89-.07A4,4,0,0,1,619.91,525Z"/><path class="cls-5" d="M628.41,527.91l1.31-15.62a15.86,15.86,0,0,1,2.56-.18,16.34,16.34,0,0,1,2.59.18l1.46,5.63c.57,2.54.88,3.92.91,4.15h.17c.07-.38.37-1.76.91-4.15l1.48-5.63a15.94,15.94,0,0,1,2.56-.18,16.34,16.34,0,0,1,2.59.18l1.31,15.62a8.41,8.41,0,0,1-1.89.18,11.38,11.38,0,0,1-1.83-.12l-.4-6.38c-.11-2.54-.18-4.31-.19-5.3h-.15l-2.44,9.34a14.86,14.86,0,0,1-4.07,0l-2.41-9.34h-.18c0,1.36-.06,3.13-.19,5.3l-.37,6.38a11.52,11.52,0,0,1-1.84.12A8.41,8.41,0,0,1,628.41,527.91Z"/><path class="cls-5" d="M649.51,528V512.27a11.72,11.72,0,0,1,2-.14,12,12,0,0,1,2,.14V528a12,12,0,0,1-2,.14A11.72,11.72,0,0,1,649.51,528Z"/><path class="cls-5" d="M662.18,527.91l1.31-15.62a15.86,15.86,0,0,1,2.56-.18,16.34,16.34,0,0,1,2.59.18l1.45,5.63c.58,2.54.88,3.92.92,4.15h.17c.06-.38.37-1.76.91-4.15l1.48-5.63a15.86,15.86,0,0,1,2.56-.18,16.34,16.34,0,0,1,2.59.18L680,527.91a8.41,8.41,0,0,1-1.89.18,11.52,11.52,0,0,1-1.84-.12l-.39-6.38c-.12-2.54-.18-4.31-.2-5.3h-.14l-2.45,9.34a14.79,14.79,0,0,1-4.06,0l-2.42-9.34h-.17c0,1.36-.07,3.13-.2,5.3L665.9,528a11.38,11.38,0,0,1-1.83.12A8.41,8.41,0,0,1,662.18,527.91Z"/><path class="cls-5" d="M687.13,523.31l0,1.66v0c.75,0,1.36,0,1.82,0h5.7a8.46,8.46,0,0,1-.08,1.31c-.19,1.18-1,1.77-2.51,1.77h-6.56a2.32,2.32,0,0,1-1.66-.57,2.09,2.09,0,0,1-.6-1.57V512.43l.17-.16H694a6.59,6.59,0,0,1,.15,1.45,4.35,4.35,0,0,1-.35,1.63h-6.7l0,1.65v1.61c.42,0,1,0,1.66,0h3.76a4.73,4.73,0,0,1,.22,1.47,5.21,5.21,0,0,1-.22,1.52h-5.42Z"/><path class="cls-5" d="M697.08,524.46a4.74,4.74,0,0,0,2.34.69,1.8,1.8,0,0,0,1.64-.7,4,4,0,0,0,.46-2.17v-10a11,11,0,0,1,1.93-.14,12,12,0,0,1,2,.14v9.67a11.6,11.6,0,0,1-.27,2.62,4.76,4.76,0,0,1-.94,2,4.3,4.3,0,0,1-1.76,1.23,7.66,7.66,0,0,1-2.74.42,7.77,7.77,0,0,1-4-1A5,5,0,0,1,697.08,524.46Z"/><path class="cls-5" d="M710.61,526.85c-1.75-1.36-2.63-3.61-2.63-6.73a11.27,11.27,0,0,1,.5-3.55,7,7,0,0,1,1.46-2.56,6.26,6.26,0,0,1,2.3-1.56,9.1,9.1,0,0,1,6.12,0,6,6,0,0,1,2.32,1.58,7.08,7.08,0,0,1,1.46,2.57,12.68,12.68,0,0,1,0,7,7.12,7.12,0,0,1-1.46,2.56,6.06,6.06,0,0,1-2.32,1.56,8.47,8.47,0,0,1-3.06.53A7.47,7.47,0,0,1,710.61,526.85Zm2-3.17a2.61,2.61,0,0,0,2.69,1.79,2.7,2.7,0,0,0,1.64-.47,3.35,3.35,0,0,0,1-1.19,5.18,5.18,0,0,0,.48-1.62,13.42,13.42,0,0,0,.13-1.77c0-.54,0-1.13-.07-1.79a7.31,7.31,0,0,0-.35-1.85,3.48,3.48,0,0,0-.94-1.45,2.69,2.69,0,0,0-1.87-.58,2.63,2.63,0,0,0-1.81.56,3.43,3.43,0,0,0-.94,1.39,6.34,6.34,0,0,0-.38,1.76c0,.62-.08,1.16-.08,1.64a15,15,0,0,0,.11,1.88A9.31,9.31,0,0,0,712.61,523.68Z"/><path class="cls-5" d="M737.48,517.11a4,4,0,0,1-.25,1.44,4.59,4.59,0,0,1-.65,1.22,4.51,4.51,0,0,1-1,.94,4.4,4.4,0,0,1-1.15.61,3.17,3.17,0,0,1,1.9,2.11l.74,2a3.37,3.37,0,0,0,1.23,1.7,2.76,2.76,0,0,1-1.11.77,4.25,4.25,0,0,1-1.62.31,1.91,1.91,0,0,1-1.38-.47,4.34,4.34,0,0,1-.92-1.64l-.88-2.42a2.53,2.53,0,0,0-.73-1,2.11,2.11,0,0,0-1.37-.37h-1V528a11.93,11.93,0,0,1-2,.14,11.5,11.5,0,0,1-2-.14V512.38l.17-.16,3.62-.07,2.3,0a9.35,9.35,0,0,1,2.46.31,5.39,5.39,0,0,1,1.89.93,4.24,4.24,0,0,1,1.21,1.56A5.17,5.17,0,0,1,737.48,517.11Zm-8.16-2.25v4.53c.74,0,1.37,0,1.9,0a3.15,3.15,0,0,0,1.27-.27,1.74,1.74,0,0,0,.73-.69,2.66,2.66,0,0,0,.24-1.26,2,2,0,0,0-2.31-2.24h-1C729.82,514.89,729.55,514.88,729.32,514.86Z"/><path class="cls-5" d="M752.18,516.15l1.66-3.88a8.2,8.2,0,0,1,1.64-.14,5.54,5.54,0,0,1,1.87.28l.17.18-4.78,10.54V528a11.54,11.54,0,0,1-2,.14,11.37,11.37,0,0,1-2-.14V523l-4.76-10.33a4.41,4.41,0,0,1,2.16-.62,2.57,2.57,0,0,1,1.48.33,2.69,2.69,0,0,1,.8,1.14l1.18,2.73a22.44,22.44,0,0,1,1.12,3.28H751A27.24,27.24,0,0,1,752.18,516.15Z"/><path class="cls-5" d="M760.62,526.85c-1.76-1.36-2.63-3.61-2.63-6.73a11.27,11.27,0,0,1,.5-3.55A7,7,0,0,1,760,514a6.26,6.26,0,0,1,2.3-1.56,9.1,9.1,0,0,1,6.12,0,6,6,0,0,1,2.32,1.58,6.93,6.93,0,0,1,1.45,2.57,12.44,12.44,0,0,1,0,7,7,7,0,0,1-1.45,2.56,6.06,6.06,0,0,1-2.32,1.56,8.47,8.47,0,0,1-3.06.53A7.47,7.47,0,0,1,760.62,526.85Zm2-3.17a2.61,2.61,0,0,0,2.69,1.79A2.7,2.7,0,0,0,767,525a3.35,3.35,0,0,0,1-1.19,5.18,5.18,0,0,0,.48-1.62,13.38,13.38,0,0,0,.12-1.77c0-.54,0-1.13-.06-1.79a7.31,7.31,0,0,0-.35-1.85,3.48,3.48,0,0,0-.94-1.45,3.27,3.27,0,0,0-3.69,0,3.41,3.41,0,0,0-.93,1.39,6,6,0,0,0-.38,1.76c0,.62-.08,1.16-.08,1.64a15,15,0,0,0,.11,1.88A9.31,9.31,0,0,0,762.62,523.68Z"/><polygon class="cls-6" points="-41.4 -5.69 897.89 -5.69 897.89 108.79 -41.4 -5.69"/><polygon class="cls-7" points="1051.63 40.39 1048.54 138.78 194.65 22.28 134.78 15.37 1051.63 40.39"/><g class="cls-8"><rect class="cls-9" x="0.45" y="-67.63" width="1001.15" height="605.81" transform="translate(1002.05 470.54) rotate(180)"/><g class="cls-10"><g class="cls-11"><polygon class="cls-12" points="658.54 -220.11 659.16 -220.28 888.19 603.23 887.56 603.39 658.54 -220.11"/><polygon class="cls-12" points="665.53 -220.02 666.16 -220.19 895.19 603.31 894.56 603.48 665.53 -220.02"/><polygon class="cls-12" points="672.53 -219.93 673.15 -220.1 902.18 603.4 901.56 603.57 672.53 -219.93"/><polygon class="cls-12" points="679.52 -219.84 680.15 -220.01 909.18 603.49 908.55 603.66 679.52 -219.84"/><polygon class="cls-12" points="686.52 -219.75 687.15 -219.92 916.17 603.58 915.55 603.74 686.52 -219.75"/><polygon class="cls-12" points="693.52 -219.67 694.14 -219.83 923.17 603.67 922.54 603.83 693.52 -219.67"/><polygon class="cls-12" points="700.51 -219.58 701.14 -219.74 930.17 603.76 929.54 603.92 700.51 -219.58"/><polygon class="cls-12" points="651.54 -220.2 652.16 -220.36 881.19 603.14 880.57 603.3 651.54 -220.2"/><polygon class="cls-12" points="644.54 -220.29 645.17 -220.45 874.2 603.05 873.57 603.21 644.54 -220.29"/><polygon class="cls-12" points="637.55 -220.37 638.17 -220.54 867.2 602.96 866.58 603.13 637.55 -220.37"/><polygon class="cls-12" points="588.58 -220.99 589.2 -221.16 818.23 602.34 817.6 602.51 588.58 -220.99"/><polygon class="cls-12" points="595.57 -220.91 596.2 -221.07 825.23 602.43 824.6 602.59 595.57 -220.91"/><polygon class="cls-12" points="602.57 -220.82 603.19 -220.98 832.22 602.52 831.6 602.68 602.57 -220.82"/><polygon class="cls-12" points="609.56 -220.73 610.19 -220.89 839.22 602.61 838.59 602.77 609.56 -220.73"/><polygon class="cls-12" points="616.56 -220.64 617.18 -220.81 846.21 602.69 845.59 602.86 616.56 -220.64"/><polygon class="cls-12" points="623.56 -220.55 624.18 -220.72 853.21 602.78 852.58 602.95 623.56 -220.55"/><polygon class="cls-12" points="630.55 -220.46 631.18 -220.63 860.21 602.87 859.58 603.04 630.55 -220.46"/><polygon class="cls-12" points="581.58 -221.08 582.21 -221.25 811.23 602.25 810.61 602.42 581.58 -221.08"/><polygon class="cls-12" points="574.58 -221.17 575.21 -221.34 804.24 602.16 803.61 602.33 574.58 -221.17"/><polygon class="cls-12" points="567.59 -221.26 568.21 -221.43 797.24 602.08 796.62 602.24 567.59 -221.26"/><polygon class="cls-12" points="518.62 -221.88 519.24 -222.04 748.27 601.46 747.64 601.62 518.62 -221.88"/><polygon class="cls-12" points="525.61 -221.79 526.24 -221.96 755.27 601.54 754.64 601.71 525.61 -221.79"/><polygon class="cls-12" points="532.61 -221.7 533.23 -221.87 762.26 601.63 761.64 601.8 532.61 -221.7"/><polygon class="cls-12" points="539.6 -221.61 540.23 -221.78 769.26 601.72 768.63 601.89 539.6 -221.61"/><polygon class="cls-12" points="546.6 -221.53 547.23 -221.69 776.25 601.81 775.63 601.98 546.6 -221.53"/><polygon class="cls-12" points="553.6 -221.44 554.22 -221.6 783.25 601.9 782.62 602.06 553.6 -221.44"/><polygon class="cls-12" points="560.59 -221.35 561.22 -221.51 790.25 601.99 789.62 602.15 560.59 -221.35"/><polygon class="cls-12" points="511.62 -221.97 512.25 -222.13 741.27 601.37 740.65 601.53 511.62 -221.97"/><polygon class="cls-12" points="504.62 -222.06 505.25 -222.22 734.28 601.28 733.65 601.44 504.62 -222.06"/><polygon class="cls-12" points="497.63 -222.14 498.25 -222.31 727.28 601.19 726.66 601.36 497.63 -222.14"/><polygon class="cls-12" points="448.65 -222.76 449.28 -222.93 678.31 600.57 677.68 600.74 448.65 -222.76"/><polygon class="cls-12" points="455.65 -222.68 456.28 -222.84 685.31 600.66 684.68 600.83 455.65 -222.68"/><polygon class="cls-12" points="462.65 -222.59 463.27 -222.75 692.3 600.75 691.68 600.91 462.65 -222.59"/><polygon class="cls-12" points="469.64 -222.5 470.27 -222.66 699.3 600.84 698.67 601 469.64 -222.5"/><polygon class="cls-12" points="476.64 -222.41 477.26 -222.57 706.29 600.92 705.67 601.09 476.64 -222.41"/><polygon class="cls-12" points="483.63 -222.32 484.26 -222.49 713.29 601.01 712.66 601.18 483.63 -222.32"/><polygon class="cls-12" points="490.63 -222.23 491.26 -222.4 720.29 601.1 719.66 601.27 490.63 -222.23"/><polygon class="cls-12" points="441.66 -222.85 442.29 -223.02 671.31 600.48 670.69 600.65 441.66 -222.85"/><polygon class="cls-12" points="434.66 -222.94 435.29 -223.11 664.32 600.39 663.69 600.56 434.66 -222.94"/><polygon class="cls-12" points="427.67 -223.03 428.29 -223.19 657.32 600.3 656.7 600.47 427.67 -223.03"/><polygon class="cls-12" points="798.46 -218.34 799.08 -218.5 1028.11 604.99 1027.48 605.16 798.46 -218.34"/><polygon class="cls-12" points="805.45 -218.25 806.08 -218.42 1035.11 605.08 1034.48 605.25 805.45 -218.25"/><polygon class="cls-12" points="812.45 -218.16 813.07 -218.33 1042.1 605.17 1041.48 605.34 812.45 -218.16"/><polygon class="cls-12" points="819.44 -218.07 820.07 -218.24 1049.1 605.26 1048.47 605.42 819.44 -218.07"/><polygon class="cls-12" points="826.44 -217.99 827.07 -218.15 1056.1 605.35 1055.47 605.51 826.44 -217.99"/><polygon class="cls-12" points="833.44 -217.9 834.06 -218.06 1063.09 605.44 1062.46 605.6 833.44 -217.9"/><polygon class="cls-12" points="840.43 -217.81 841.06 -217.97 1070.09 605.52 1069.46 605.69 840.43 -217.81"/><polygon class="cls-12" points="791.46 -218.43 792.09 -218.59 1021.12 604.91 1020.49 605.07 791.46 -218.43"/><polygon class="cls-12" points="784.46 -218.52 785.09 -218.68 1014.12 604.82 1013.49 604.98 784.46 -218.52"/><polygon class="cls-12" points="777.47 -218.6 778.09 -218.77 1007.12 604.73 1006.5 604.89 777.47 -218.6"/><polygon class="cls-12" points="728.5 -219.22 729.12 -219.39 958.15 604.11 957.52 604.27 728.5 -219.22"/><polygon class="cls-12" points="735.49 -219.14 736.12 -219.3 965.15 604.2 964.52 604.36 735.49 -219.14"/><polygon class="cls-12" points="742.49 -219.05 743.11 -219.21 972.14 604.29 971.52 604.45 742.49 -219.05"/><polygon class="cls-12" points="749.48 -218.96 750.11 -219.13 979.14 604.38 978.51 604.54 749.48 -218.96"/><polygon class="cls-12" points="756.48 -218.87 757.11 -219.04 986.13 604.46 985.51 604.63 756.48 -218.87"/><polygon class="cls-12" points="763.48 -218.78 764.1 -218.95 993.13 604.55 992.5 604.72 763.48 -218.78"/><polygon class="cls-12" points="770.47 -218.69 771.1 -218.86 1000.13 604.64 999.5 604.81 770.47 -218.69"/><polygon class="cls-12" points="721.5 -219.31 722.13 -219.48 951.15 604.02 950.53 604.19 721.5 -219.31"/><polygon class="cls-12" points="714.5 -219.4 715.13 -219.57 944.16 603.93 943.53 604.1 714.5 -219.4"/><polygon class="cls-12" points="707.51 -219.49 708.13 -219.66 937.16 603.84 936.54 604.01 707.51 -219.49"/><polygon class="cls-12" points="98.85 -227.21 99.48 -227.37 328.51 596.13 327.88 596.29 98.85 -227.21"/><polygon class="cls-12" points="105.85 -227.12 106.48 -227.28 335.5 596.22 334.88 596.38 105.85 -227.12"/><polygon class="cls-12" points="112.85 -227.03 113.47 -227.19 342.5 596.3 341.88 596.47 112.85 -227.03"/><polygon class="cls-12" points="119.84 -226.94 120.47 -227.11 349.5 596.39 348.87 596.56 119.84 -226.94"/><polygon class="cls-12" points="126.84 -226.85 127.46 -227.02 356.49 596.48 355.87 596.65 126.84 -226.85"/><polygon class="cls-12" points="133.83 -226.76 134.46 -226.93 363.49 596.57 362.86 596.74 133.83 -226.76"/><polygon class="cls-12" points="140.83 -226.68 141.46 -226.84 370.48 596.66 369.86 596.83 140.83 -226.68"/><polygon class="cls-12" points="91.86 -227.29 92.48 -227.46 321.51 596.04 320.89 596.21 91.86 -227.29"/><polygon class="cls-12" points="84.86 -227.38 85.49 -227.55 314.52 595.95 313.89 596.12 84.86 -227.38"/><polygon class="cls-12" points="77.87 -227.47 78.49 -227.64 307.52 595.86 306.89 596.03 77.87 -227.47"/><polygon class="cls-12" points="28.89 -228.09 29.52 -228.26 258.55 595.24 257.92 595.41 28.89 -228.09"/><polygon class="cls-12" points="35.89 -228 36.52 -228.17 265.54 595.33 264.92 595.5 35.89 -228"/><polygon class="cls-12" points="42.89 -227.91 43.51 -228.08 272.54 595.42 271.91 595.59 42.89 -227.91"/><polygon class="cls-12" points="49.88 -227.82 50.51 -227.99 279.54 595.51 278.91 595.67 49.88 -227.82"/><polygon class="cls-12" points="56.88 -227.74 57.5 -227.9 286.53 595.6 285.91 595.76 56.88 -227.74"/><polygon class="cls-12" points="63.87 -227.65 64.5 -227.81 293.53 595.69 292.9 595.85 63.87 -227.65"/><polygon class="cls-12" points="70.87 -227.56 71.5 -227.72 300.52 595.77 299.9 595.94 70.87 -227.56"/><polygon class="cls-12" points="21.9 -228.18 22.52 -228.34 251.55 595.15 250.93 595.32 21.9 -228.18"/><polygon class="cls-12" points="14.9 -228.27 15.53 -228.43 244.56 595.07 243.93 595.23 14.9 -228.27"/><polygon class="cls-12" points="7.91 -228.36 8.53 -228.52 237.56 594.98 236.93 595.14 7.91 -228.36"/><polygon class="cls-12" points="-41.07 -228.97 -40.44 -229.14 188.59 594.36 187.96 594.52 -41.07 -228.97"/><polygon class="cls-12" points="-34.07 -228.89 -33.45 -229.05 195.58 594.45 194.96 594.61 -34.07 -228.89"/><polygon class="cls-12" points="-27.07 -228.8 -26.45 -228.96 202.58 594.54 201.95 594.7 -27.07 -228.8"/><polygon class="cls-12" points="-20.08 -228.71 -19.45 -228.88 209.58 594.62 208.95 594.79 -20.08 -228.71"/><polygon class="cls-12" points="-13.08 -228.62 -12.46 -228.79 216.57 594.71 215.95 594.88 -13.08 -228.62"/><polygon class="cls-12" points="-6.09 -228.53 -5.46 -228.7 223.57 594.8 222.94 594.97 -6.09 -228.53"/><polygon class="cls-12" points="0.91 -228.44 1.53 -228.61 230.56 594.89 229.94 595.05 0.91 -228.44"/><polygon class="cls-12" points="-48.06 -229.06 -47.44 -229.23 181.59 594.27 180.97 594.44 -48.06 -229.06"/><polygon class="cls-12" points="-55.06 -229.15 -54.43 -229.32 174.6 594.18 173.97 594.35 -55.06 -229.15"/><polygon class="cls-12" points="-62.05 -229.24 -61.43 -229.41 167.6 594.09 166.97 594.26 -62.05 -229.24"/><polygon class="cls-12" points="-90.04 -229.59 -89.41 -229.76 139.62 593.74 138.99 593.9 -90.04 -229.59"/><polygon class="cls-12" points="-83.04 -229.51 -82.42 -229.67 146.61 593.83 145.99 593.99 -83.04 -229.51"/><polygon class="cls-12" points="-76.05 -229.42 -75.42 -229.58 153.61 593.92 152.98 594.08 -76.05 -229.42"/><polygon class="cls-12" points="-69.05 -229.33 -68.42 -229.5 160.6 594 159.98 594.17 -69.05 -229.33"/><polygon class="cls-12" points="378.69 -223.67 379.32 -223.83 608.35 599.67 607.72 599.83 378.69 -223.67"/><polygon class="cls-12" points="385.69 -223.58 386.32 -223.74 615.35 599.76 614.72 599.92 385.69 -223.58"/><polygon class="cls-12" points="392.69 -223.49 393.31 -223.66 622.34 599.84 621.72 600.01 392.69 -223.49"/><polygon class="cls-12" points="399.68 -223.4 400.31 -223.57 629.34 599.93 628.71 600.1 399.68 -223.4"/><polygon class="cls-12" points="406.68 -223.31 407.31 -223.48 636.33 600.02 635.71 600.19 406.68 -223.31"/><polygon class="cls-12" points="413.68 -223.22 414.3 -223.39 643.33 600.11 642.7 600.27 413.68 -223.22"/><polygon class="cls-12" points="420.67 -223.14 421.3 -223.3 650.33 600.2 649.7 600.36 420.67 -223.14"/><polygon class="cls-12" points="371.7 -223.75 372.32 -223.92 601.35 599.58 600.73 599.75 371.7 -223.75"/><polygon class="cls-12" points="364.7 -223.84 365.33 -224.01 594.36 599.49 593.73 599.66 364.7 -223.84"/><polygon class="cls-12" points="357.71 -223.93 358.33 -224.1 587.36 599.4 586.74 599.57 357.71 -223.93"/><polygon class="cls-12" points="308.74 -224.55 309.36 -224.72 538.39 598.78 537.76 598.95 308.74 -224.55"/><polygon class="cls-12" points="315.73 -224.46 316.36 -224.63 545.38 598.87 544.76 599.04 315.73 -224.46"/><polygon class="cls-12" points="322.73 -224.37 323.35 -224.54 552.38 598.96 551.75 599.13 322.73 -224.37"/><polygon class="cls-12" points="329.72 -224.29 330.35 -224.45 559.38 599.05 558.75 599.21 329.72 -224.29"/><polygon class="cls-12" points="336.72 -224.2 337.34 -224.36 566.37 599.14 565.75 599.3 336.72 -224.2"/><polygon class="cls-12" points="343.71 -224.11 344.34 -224.28 573.37 599.23 572.74 599.39 343.71 -224.11"/><polygon class="cls-12" points="350.71 -224.02 351.34 -224.19 580.37 599.31 579.74 599.48 350.71 -224.02"/><polygon class="cls-12" points="301.74 -224.64 302.36 -224.81 531.39 598.69 530.77 598.86 301.74 -224.64"/><polygon class="cls-12" points="294.74 -224.73 295.37 -224.89 524.4 598.61 523.77 598.77 294.74 -224.73"/><polygon class="cls-12" points="287.75 -224.82 288.37 -224.98 517.4 598.52 516.77 598.68 287.75 -224.82"/><polygon class="cls-12" points="238.77 -225.44 239.4 -225.6 468.43 597.9 467.8 598.06 238.77 -225.44"/><polygon class="cls-12" points="245.77 -225.35 246.4 -225.51 475.43 597.99 474.8 598.15 245.77 -225.35"/><polygon class="cls-12" points="252.77 -225.26 253.39 -225.43 482.42 598.08 481.8 598.24 252.77 -225.26"/><polygon class="cls-12" points="259.76 -225.17 260.39 -225.34 489.42 598.16 488.79 598.33 259.76 -225.17"/><polygon class="cls-12" points="266.76 -225.08 267.38 -225.25 496.41 598.25 495.79 598.42 266.76 -225.08"/><polygon class="cls-12" points="273.75 -224.99 274.38 -225.16 503.41 598.34 502.78 598.51 273.75 -224.99"/><polygon class="cls-12" points="280.75 -224.91 281.38 -225.07 510.4 598.43 509.78 598.59 280.75 -224.91"/><polygon class="cls-12" points="231.78 -225.53 232.4 -225.69 461.43 597.81 460.81 597.98 231.78 -225.53"/><polygon class="cls-12" points="224.78 -225.61 225.41 -225.78 454.44 597.72 453.81 597.89 224.78 -225.61"/><polygon class="cls-12" points="217.79 -225.7 218.41 -225.87 447.44 597.63 446.81 597.8 217.79 -225.7"/><polygon class="cls-12" points="168.81 -226.32 169.44 -226.49 398.47 597.01 397.84 597.18 168.81 -226.32"/><polygon class="cls-12" points="175.81 -226.23 176.44 -226.4 405.46 597.1 404.84 597.27 175.81 -226.23"/><polygon class="cls-12" points="182.81 -226.14 183.43 -226.31 412.46 597.19 411.83 597.36 182.81 -226.14"/><polygon class="cls-12" points="189.8 -226.06 190.43 -226.22 419.46 597.28 418.83 597.44 189.8 -226.06"/><polygon class="cls-12" points="196.8 -225.97 197.42 -226.13 426.45 597.37 425.83 597.53 196.8 -225.97"/><polygon class="cls-12" points="203.79 -225.88 204.42 -226.04 433.45 597.46 432.82 597.62 203.79 -225.88"/><polygon class="cls-12" points="210.79 -225.79 211.42 -225.96 440.44 597.54 439.82 597.71 210.79 -225.79"/><polygon class="cls-12" points="161.82 -226.41 162.44 -226.57 391.47 596.92 390.85 597.09 161.82 -226.41"/><polygon class="cls-12" points="154.82 -226.5 155.45 -226.66 384.48 596.84 383.85 597 154.82 -226.5"/><polygon class="cls-12" points="147.83 -226.59 148.45 -226.75 377.48 596.75 376.86 596.91 147.83 -226.59"/></g></g></g><polygon class="cls-13" points="547.91 -5.69 438.75 7.57 -4.5 61.41 -4.5 -5.69 547.91 -5.69"/><polygon class="cls-14" points="989.5 655.92 993.69 557.56 133.22 619.01 72.98 622.06 989.5 655.92"/><polygon class="cls-15" points="526.08 617.43 416.92 604.17 -26.34 550.33 -26.34 617.43 526.08 617.43"/></g><g class="cls-16"><rect class="cls-17" x="267.33" y="100.05" width="44.98" height="62.8"/></g><path class="cls-5" d="M421.29,114.21v6.85c0,2.57,1.16,3.66,2.73,3.66,1.72,0,2.85-1.13,2.85-3.66v-6.85h1.53V121c0,3.55-1.89,5-4.43,5s-4.21-1.33-4.21-4.92v-6.8Z"/><path class="cls-5" d="M431,125.75V114.21h1.67l3.75,5.84a33.22,33.22,0,0,1,2.08,3.74h.05c-.14-1.54-.17-2.94-.17-4.74v-4.83h1.42v11.54H438.3l-3.73-5.86a34.28,34.28,0,0,1-2.17-3.84h0c.08,1.45.1,2.84.1,4.76v4.93Z"/><rect class="cls-5" x="442.85" y="114.21" width="1.53" height="11.54"/><path class="cls-5" d="M449.81,125.75,446,114.21h1.66l1.82,5.68c.49,1.56.91,3,1.25,4.32h0c.33-1.34.81-2.79,1.34-4.3l2-5.7h1.62l-4.19,11.54Z"/><polygon class="cls-5" points="462.99 120.34 458.45 120.34 458.45 124.5 463.53 124.5 463.53 125.75 456.92 125.75 456.92 114.21 463.27 114.21 463.27 115.46 458.45 115.46 458.45 119.11 462.99 119.11 462.99 120.34"/><path class="cls-5" d="M467,119.62h1.55c1.62,0,2.65-.87,2.65-2.19,0-1.49-1.1-2.14-2.7-2.14a6.69,6.69,0,0,0-1.5.12Zm-1.51-5.25a17.59,17.59,0,0,1,2.9-.24,4.92,4.92,0,0,1,3.4.94,2.93,2.93,0,0,1,.92,2.21,3,3,0,0,1-2.19,2.92v.06a2.88,2.88,0,0,1,1.7,2.32,19.23,19.23,0,0,0,.91,3.17h-1.57a14.5,14.5,0,0,1-.76-2.76c-.35-1.59-1-2.19-2.37-2.24H467v5h-1.51Z"/><path class="cls-5" d="M474.66,123.93a5.17,5.17,0,0,0,2.69.76c1.55,0,2.45-.81,2.45-2s-.62-1.7-2.2-2.28c-1.92-.68-3.1-1.68-3.1-3.28,0-1.8,1.51-3.14,3.79-3.14a5.37,5.37,0,0,1,2.58.57l-.42,1.22a4.32,4.32,0,0,0-2.21-.56c-1.6,0-2.21,1-2.21,1.73,0,1.08.71,1.61,2.33,2.23,2,.75,3,1.69,3,3.39s-1.32,3.34-4.08,3.34a6.21,6.21,0,0,1-3-.76Z"/><rect class="cls-5" x="483.45" y="114.21" width="1.53" height="11.54"/><path class="cls-5" d="M489.09,124.58a11.23,11.23,0,0,0,1.53.07c3.25,0,5-1.78,5-4.89,0-2.73-1.56-4.45-4.75-4.45a8.49,8.49,0,0,0-1.78.15Zm-1.51-10.19a18.91,18.91,0,0,1,3.22-.27,6.81,6.81,0,0,1,4.74,1.45,5.18,5.18,0,0,1,1.67,4.14,6.1,6.1,0,0,1-1.68,4.48,7.38,7.38,0,0,1-5.21,1.66,26.06,26.06,0,0,1-2.74-.13Z"/><path class="cls-5" d="M504,121l-1.17-3.31c-.26-.76-.43-1.44-.61-2.11h0c-.18.67-.34,1.39-.59,2.09L500.4,121Zm-3.86,1.17-1.22,3.63h-1.56l4-11.54h1.81l4,11.54h-1.61l-1.26-3.63Z"/><path class="cls-5" d="M509.83,124.58a11.23,11.23,0,0,0,1.53.07c3.25,0,5-1.78,5-4.89,0-2.73-1.55-4.45-4.75-4.45a8.56,8.56,0,0,0-1.78.15Zm-1.51-10.19a19,19,0,0,1,3.22-.27,6.86,6.86,0,0,1,4.75,1.45,5.21,5.21,0,0,1,1.66,4.14,6.1,6.1,0,0,1-1.68,4.48,7.35,7.35,0,0,1-5.2,1.66,26.27,26.27,0,0,1-2.75-.13Z"/><path class="cls-5" d="M421.27,140.12c.38,0,.94.06,1.53.06,3.25,0,5-1.78,5-4.89,0-2.72-1.55-4.45-4.75-4.45a8.45,8.45,0,0,0-1.77.15Zm-1.51-10.21a20.13,20.13,0,0,1,3.21-.25,6.89,6.89,0,0,1,4.75,1.43,5.25,5.25,0,0,1,1.67,4.15,6.1,6.1,0,0,1-1.69,4.48,7.35,7.35,0,0,1-5.2,1.66,23.22,23.22,0,0,1-2.74-.14Z"/><polygon class="cls-5" points="437.19 135.87 432.64 135.87 432.64 140.03 437.73 140.03 437.73 141.28 431.12 141.28 431.12 129.74 437.46 129.74 437.46 130.99 432.64 130.99 432.64 134.63 437.19 134.63 437.19 135.87"/><polygon class="cls-5" points="439.59 129.74 441.11 129.74 441.11 140.03 446.13 140.03 446.13 141.28 439.59 141.28 439.59 129.74"/><path class="cls-5" d="M453.27,141.28l-3.85-11.54h1.66l1.82,5.68c.49,1.56.93,3,1.26,4.32h0c.33-1.34.8-2.79,1.34-4.3l2-5.7h1.62l-4.19,11.54Z"/><path class="cls-5" d="M464.4,136.48l-1.17-3.31c-.26-.76-.43-1.44-.6-2.11h0c-.18.67-.34,1.38-.59,2.09l-1.15,3.33Zm-3.86,1.17-1.22,3.63h-1.57l4-11.54h1.81l4,11.54H466l-1.26-3.63Z"/><polygon class="cls-5" points="468.93 129.74 470.46 129.74 470.46 140.03 475.47 140.03 475.47 141.28 468.93 141.28 468.93 129.74"/><polygon class="cls-5" points="477.13 129.74 478.67 129.74 478.67 140.03 483.68 140.03 483.68 141.28 477.13 141.28 477.13 129.74"/><polygon class="cls-5" points="491.41 135.87 486.88 135.87 486.88 140.03 491.95 140.03 491.95 141.28 485.34 141.28 485.34 129.74 491.69 129.74 491.69 130.99 486.88 130.99 486.88 134.63 491.41 134.63 491.41 135.87"/><path class="cls-5" d="M501.2,136.55c2.11,0,3.13-1.07,3.16-3.09v0c0-1.74-.93-2.75-3-2.77a6.14,6.14,0,0,0-1,.07v5.8c.23,0,.52,0,.82,0m-2.07,1.13-.19,0v-8l.18,0a14.16,14.16,0,0,1,2.2-.17,4.86,4.86,0,0,1,3.35,1,3.75,3.75,0,0,1,1.19,2.95,4.39,4.39,0,0,1-1.2,3.18,5.15,5.15,0,0,1-3.65,1.17h-.1a14.91,14.91,0,0,1-1.78-.09"/><polygon class="cls-5" points="507.45 137.7 507.45 129.5 512.15 129.5 512.15 129.71 512.15 130.77 508.91 130.77 508.91 132.81 511.97 132.81 511.97 133.02 511.97 133.85 511.97 134.06 508.91 134.06 508.91 136.45 512.33 136.45 512.33 136.66 512.33 137.7 507.45 137.7"/><path class="cls-5" d="M521.09,135.44a5.08,5.08,0,0,0,1.26.12c1.82,0,2.94-.88,2.94-2.45s-1.12-2.27-2.76-2.27a6.5,6.5,0,0,0-1.44.12Zm-1.51-5.56a17.88,17.88,0,0,1,2.91-.22,4.87,4.87,0,0,1,3.29,1,3.13,3.13,0,0,1,1,2.41,3.33,3.33,0,0,1-.91,2.46,4.91,4.91,0,0,1-3.58,1.27,5.68,5.68,0,0,1-1.22-.1v4.62h-1.51Z"/><path class="cls-5" d="M529.89,129.74v6.85c0,2.57,1.16,3.66,2.72,3.66,1.73,0,2.86-1.13,2.86-3.66v-6.85H537v6.74c0,3.55-1.89,5-4.43,5s-4.22-1.33-4.22-4.92v-6.8Z"/><polygon class="cls-5" points="545.07 135.87 540.53 135.87 540.53 140.03 545.6 140.03 545.6 141.28 539 141.28 539 129.74 545.34 129.74 545.34 130.99 540.53 130.99 540.53 134.63 545.07 134.63 545.07 135.87"/><path class="cls-5" d="M549.2,140.15a8.41,8.41,0,0,0,1.26.07c1.57,0,3-.57,3-2.25s-1.38-2.22-3-2.22H549.2Zm0-5.52h1.37c1.58,0,2.52-.83,2.52-1.94,0-1.34-1-1.89-2.55-1.89a7.61,7.61,0,0,0-1.34.1Zm-1.52-4.72a14,14,0,0,1,2.77-.25,4.77,4.77,0,0,1,3.2.84,2.43,2.43,0,0,1,1,2,2.75,2.75,0,0,1-2,2.54v.05a2.94,2.94,0,0,1,2.41,2.87,3,3,0,0,1-1,2.31c-.8.74-2.12,1.08-4,1.08a17.61,17.61,0,0,1-2.35-.14Z"/><polygon class="cls-5" points="556.76 129.74 558.29 129.74 558.29 140.03 563.3 140.03 563.3 141.28 556.76 141.28 556.76 129.74"/><path class="cls-5" d="M570.74,136.48l-1.16-3.31c-.26-.76-.44-1.44-.61-2.11h0c-.17.67-.35,1.38-.59,2.09l-1.15,3.33Zm-3.86,1.17-1.21,3.63H564.1l4-11.54h1.81l4,11.54h-1.62L571,137.65Z"/><rect class="cls-5" x="499" y="140.03" width="13.51" height="1.25"/><rect class="cls-5" x="409.9" y="100" width="1.55" height="41.41"/><path class="cls-5" d="M335.66,114.22V130c0,5.3,2.24,7.74,5.62,7.74,3.63,0,5.79-2.44,5.79-7.74V114.22h5v15.45c0,8.34-4.37,12-11,12-6.36,0-10.48-3.49-10.48-12V114.22Z"/><path class="cls-5" d="M364.32,141.26l-8.89-27h5.46l3.75,12.32c1.06,3.41,2,6.54,2.69,9.83h.08c.74-3.21,1.76-6.5,2.82-9.79l4-12.36h5.34l-9.49,27Z"/><path class="cls-5" d="M388.25,127.14a8.58,8.58,0,0,0,2.45.24c3.75,0,6-1.84,6-5s-2.12-4.58-5.58-4.58a14.15,14.15,0,0,0-2.9.24Zm-5-12.56a44.93,44.93,0,0,1,7.66-.56c3.67,0,6.32.76,8.07,2.21a7.58,7.58,0,0,1,2.69,6,8.18,8.18,0,0,1-2.32,6.1c-2,2-5.14,2.92-8.68,2.92a11.18,11.18,0,0,1-2.45-.2v10.23h-5Z"/><path class="cls-5" d="M305.52,197.76c9.48,3.79,15.25,11.37,7.75,17.88-2.47,2.14-8.65,4-15.57,4,2.8,1.23,5.44,4,6.51,10.13l1.4,9c.82,5.19,3.79,2.72,6.26.74a42.55,42.55,0,0,0,8.57-10.13c.49-.83,1.07-.42.74.16a41.06,41.06,0,0,1-10.88,12.36c-5.27,4-9.47,4-10.71-3.46l-1.31-8.65c-1.08-6.76-3-9.72-6.84-10.13L289.71,223c-8.32,14.66-18.78,25.46-33.7,30.81a55.5,55.5,0,0,1-5.35,1.48c7.66,12.44,23.89,12.86,32,3.88,1.07-1.24,1.4-.58.5.41-8.49,9.88-26.12,9.64-35.67-3.63-8.65,1.4-17.06.17-22.17-6.18-1.31-1.56-1.89-4.44,1.24-5.43C229,254,238,256.09,246.7,254.85a33.42,33.42,0,0,1-4.28-10c-11.62-.66-14.75-11.78-12.19-21.58,5.11-18.62,22.82-28.92,42.34-30.4a77.15,77.15,0,0,1,30.73,4,23.54,23.54,0,0,1,3.54-1.81c5.52-2.31,11.62-1.49,14.59,3.13,1.07,1.64,1.4,4.11-1.82,5.1.08-5.27-4.36-10.62-10.46-7.91A15.55,15.55,0,0,0,305.52,197.76Zm-3.62.08a69.8,69.8,0,0,0-29.16-3.29c-17.8,1.81-33.7,15.07-36.75,31.22-1.31,7-.49,15,5.85,17.14a31.07,31.07,0,0,1-.57-4.95c-.33-7,3-18.78,10.95-26.85,15.41-15.49,30.16-9.23,22.49,9.72-3.62,9.06-11.53,18.86-22.07,22.41a35.8,35.8,0,0,1-5.69,1.4,26.79,26.79,0,0,0,3.13,9.55,38.42,38.42,0,0,0,5.27-1.56c14.09-5.44,20.11-16.23,28.34-30.73l3.55-6.26C290.86,209.21,295.47,202.21,301.9,197.84Zm-55.2,45.48a17.13,17.13,0,0,0,3.3-.58c12.69-3.13,19.85-13.92,23.31-22,6.35-14.75-1.89-23.15-15.15-9C249.92,220.5,245.55,233.6,246.7,243.32Zm57.67-44.57c-3.38,3.21-5.77,7.66-8.15,12l-4,7.41c8.57.83,14.42-1.89,16.89-4.61C313.76,208.39,312.2,202,304.37,198.75Z"/><path class="cls-5" d="M335.18,218.27c4.44,0,7.74,2.72,4.61,7.5-2.8,4.45-10.88,7-17.8,8.16-1.48,3.54-1.56,6.83.66,8.24,3.55,2.14,9,.32,13.27-2.81a37.55,37.55,0,0,0,8.81-10.13c.41-.66,1-.25.66.33a36.06,36.06,0,0,1-9.06,10.63c-4.45,3.46-9.39,5.52-15.24,3.87-4.12-1.07-7.17-5.93-4-13C320.26,224.21,327.27,218.27,335.18,218.27Zm-10.55,10.8c-.82,1.31-1.56,2.63-2.22,3.87a17.66,17.66,0,0,0,11.86-8.16c1.89-3.21,2-5.52.25-5.52C332.29,219.26,328.09,223.46,324.63,229.07Z"/><path class="cls-5" d="M360.05,227.83c-1.64-.08-3-1.15-2.72-2.72.33-2,2.72-3.21,4.95-2.72,1.07-2.06-.25-3-2-3-4.45-.33-9,5.76-11.45,9.72a22.51,22.51,0,0,0-2.55,4.86c-1.57,3.54-1.57,6.83.57,8.24,3.54,2.14,9,.32,13.18-2.81a37.82,37.82,0,0,0,8.9-10.13c.41-.66,1-.25.66.33a35.78,35.78,0,0,1-9,10.63c-4.45,3.46-9.39,5.52-15.32,3.87-4.12-1.07-7.17-5.93-4-13,3-6.83,10.14-12.77,18-12.77C367.47,218.44,366.64,227.91,360.05,227.83Z"/><path class="cls-5" d="M378.17,242.08c.09.17.33.25.58.33,2.39.83,5.77-.82,7.75-2.3a40.24,40.24,0,0,0,9.3-10.88c.33-.66.91-.25.58.33a42.83,42.83,0,0,1-9.14,11.2c-3.79,3.05-7.58,4-9.89,3.88a6,6,0,0,1-2.55-.83,16.16,16.16,0,0,1-5.36.91c-7.33,0-7.33-5.85-3.29-13.26s10.71-13.19,18-13.19,7.49,5.85,3.46,13.19A32.06,32.06,0,0,1,378.17,242.08Zm-4.86.09c-1.07-2.48,1.4-5.61,5.61-5.77A39.51,39.51,0,0,0,385.09,225c1.24-3.87.17-5.44-1.64-5.44-2.56,0-7.58,5.27-11.29,12s-4.78,12.19-2.14,12.19A6.9,6.9,0,0,0,373.31,242.17Z"/><path class="cls-5" d="M423.65,229.56c-5.36,9-12.61,15.08-17.3,15.08-2.47,0-4.7-3-.91-9.89l6.34-11.37c2.56-4.61-.74-3.62-4.77-.41a28.67,28.67,0,0,0-5.94,6.51l-8.15,14.66c-2.39,0-5.36-1.56-2.72-6.42l10.46-18.95c2.31,0,5.19,1.56,3,5.85,3.3-3.3,7.75-6.35,10.79-6.35,2.39,0,4.78,3,1,9.89l-6.34,11.45c-2.8,5,1.23,2.88,4.53.5A39.07,39.07,0,0,0,423,229.23C423.4,228.57,424,229,423.65,229.56Z"/><path class="cls-5" d="M432.21,242.08c.09.17.33.25.58.33,2.39.83,5.77-.82,7.74-2.3a40.08,40.08,0,0,0,9.31-10.88c.33-.66.91-.25.58.33a42.66,42.66,0,0,1-9.15,11.2c-3.79,3.05-7.57,4-9.88,3.88a5.91,5.91,0,0,1-2.55-.83,16.21,16.21,0,0,1-5.36.91c-7.33,0-7.33-5.85-3.3-13.26s10.71-13.19,18-13.19,7.5,5.85,3.46,13.19A31.92,31.92,0,0,1,432.21,242.08Zm-4.86.09c-1.07-2.48,1.4-5.61,5.6-5.77A39.54,39.54,0,0,0,439.13,225c1.24-3.87.17-5.44-1.65-5.44-2.55,0-7.57,5.27-11.28,12s-4.78,12.19-2.14,12.19A6.94,6.94,0,0,0,427.35,242.17Z"/><path class="cls-5" d="M465.08,227.83c-1.65-.08-3-1.15-2.72-2.72.33-2,2.72-3.21,4.95-2.72,1.07-2.06-.25-3-2-3-4.45-.33-9,5.76-11.45,9.72a23,23,0,0,0-2.56,4.86c-1.56,3.54-1.56,6.83.58,8.24,3.54,2.14,9,.32,13.18-2.81a37.82,37.82,0,0,0,8.9-10.13c.41-.66,1-.25.66.33a35.78,35.78,0,0,1-9,10.63c-4.45,3.46-9.39,5.52-15.32,3.87-4.12-1.07-7.17-5.93-4-13,3.05-6.83,10.13-12.77,18-12.77C472.5,218.44,471.67,227.91,465.08,227.83Z"/><path class="cls-5" d="M478.92,218.77c2.39,0,5.44,1.65,2.8,6.42l-8,14.42c-2.8,5,1.23,2.88,4.61.5a40.25,40.25,0,0,0,9.31-10.88c.33-.66.91-.25.58.33-5.27,9-12.61,15.08-17.3,15.08-2.47,0-4.7-3-.83-9.89Zm7.17-10.46a2.74,2.74,0,0,1,3,3,4.17,4.17,0,0,1-4,3.05c-1.89,0-3.29-1.32-3-3.05S484.27,208.31,486.09,208.31Z"/><path class="cls-5" d="M517.22,223.38c2.56-4.61-.57-3.62-4.69-.41a30.05,30.05,0,0,0-5.93,6.43l-8.08,14.74c-2.47,0-5.51-1.56-2.8-6.42l7.91-14.34c2.56-4.61-.74-3.62-4.78-.41a28.87,28.87,0,0,0-5.93,6.51l-8.15,14.66c-2.39,0-5.36-1.56-2.72-6.42l10.46-18.95c2.31,0,5.19,1.56,3.05,5.85,3.29-3.3,7.74-6.35,10.79-6.35,2.06,0,3.95,2.06,2.31,6.84l.57-.49c3.3-3.3,7.67-6.35,10.8-6.35,2.39,0,4.77,3,.9,9.89l-6.26,11.45c-2.88,5,1.15,2.88,4.45.5a36.46,36.46,0,0,0,9.31-10.88c.49-.66,1.07-.25.66.33-5.27,9-12.52,15.08-17.3,15.08-2.39,0-4.7-3-.91-9.89Z"/><path class="cls-5" d="M533.45,218.77c2.39,0,5.44,1.65,2.8,6.42l-8,14.42c-2.8,5,1.24,2.88,4.61.5a40.25,40.25,0,0,0,9.31-10.88c.33-.66.91-.25.58.33-5.27,9-12.6,15.08-17.3,15.08-2.47,0-4.7-3-.82-9.89Zm7.17-10.46a2.74,2.74,0,0,1,3,3,4.17,4.17,0,0,1-4,3.05c-1.9,0-3.3-1.32-3-3.05S538.81,208.31,540.62,208.31Z"/><path class="cls-5" d="M556.68,218.27c4.45,0,7.75,2.72,4.62,7.5-2.81,4.45-10.88,7-17.8,8.16-1.48,3.54-1.57,6.83.66,8.24,3.54,2.14,9,.32,13.26-2.81a37.58,37.58,0,0,0,8.82-10.13c.41-.66,1-.25.66.33a36.06,36.06,0,0,1-9.06,10.63c-4.45,3.46-9.4,5.52-15.25,3.87-4.12-1.07-7.16-5.93-4-13C541.77,224.21,548.77,218.27,556.68,218.27Zm-10.54,10.8c-.83,1.31-1.57,2.63-2.23,3.87a17.66,17.66,0,0,0,11.87-8.16c1.89-3.21,2-5.52.24-5.52C553.8,219.26,549.6,223.46,546.14,229.07Z"/><path class="cls-5" d="M594.16,229.56c-5.35,9-12.6,15.08-17.3,15.08-2.47,0-4.69-3-.9-9.89l6.34-11.37c2.55-4.61-.74-3.62-4.78-.41a28.87,28.87,0,0,0-5.93,6.51l-8.16,14.66c-2.38,0-5.35-1.56-2.71-6.42l10.46-18.95c2.31,0,5.19,1.56,3.05,5.85,3.29-3.3,7.74-6.35,10.79-6.35,2.39,0,4.78,3,1,9.89l-6.35,11.45c-2.8,5,1.24,2.88,4.53.5a38.9,38.9,0,0,0,9.31-10.88C593.92,228.57,594.49,229,594.16,229.56Z"/><path class="cls-5" d="M599.1,218.77c9-15.82,21.26-32.87,37.16-38.47,11.2-3.88,21.25-4.45,28.09,4,1.32,1.57,1.89,4.45-1.24,5.44-3.37-12.93-15.65-12.6-26.28-8.49-13.26,5.11-23.39,23.24-31.3,37.49h6.34c1,0,.58,1.23-.57,1.23h-6.51l-8.65,15.9c-2.06,3.63-2.72,6.1-1.32,6.59s3-.08,4.86-1c4.86-2.39,9.39-7.34,12.36-12.28.41-.66.9-.25.66.33-3.22,5.27-7.09,9.8-12.44,12.93-8.32,4.87-15.08,1.32-8.16-11L598.44,220h-4c-1,0-.82-1.23.41-1.23Z"/><path class="cls-5" d="M621.18,242.08c.08.17.33.25.58.33,2.39.83,5.76-.82,7.74-2.3a40.26,40.26,0,0,0,9.31-10.88c.33-.66.91-.25.58.33a42.66,42.66,0,0,1-9.15,11.2c-3.79,3.05-7.58,4-9.88,3.88a6,6,0,0,1-2.56-.83,16.1,16.1,0,0,1-5.35.91c-7.33,0-7.33-5.85-3.3-13.26s10.71-13.19,18-13.19,7.5,5.85,3.46,13.19A31.92,31.92,0,0,1,621.18,242.08Zm-4.86.09c-1.07-2.48,1.4-5.61,5.6-5.77A39.54,39.54,0,0,0,628.1,225c1.24-3.87.16-5.44-1.65-5.44-2.55,0-7.58,5.27-11.28,12s-4.78,12.19-2.15,12.19A6.92,6.92,0,0,0,616.32,242.17Z"/><path class="cls-18" d="M401.47,180.58c-1.75,0-2.28-1.3-2.28-2.9s.53-2.83,2.28-2.83,2.27,1.26,2.27,2.83S403.22,180.58,401.47,180.58Zm0-5.33c-1.3,0-1.75,1.09-1.75,2.43s.35,2.5,1.75,2.5,1.74-1.15,1.74-2.5S402.86,175.25,401.47,175.25Z"/><path class="cls-18" d="M407.47,181c-1.22-.23-1.83-.8-1.83-1.83v-3.77h-.83V175h.83v-1.36h.49V175h1.25v.4h-1.25v3.77c0,.78.42,1.19,1.47,1.37Z"/><path class="cls-18" d="M411,180.58c-1.75,0-2.28-1.3-2.28-2.9s.53-2.83,2.28-2.83,2.27,1.26,2.27,2.83S412.7,180.58,411,180.58Zm0-5.33c-1.31,0-1.75,1.09-1.75,2.43s.35,2.5,1.75,2.5,1.74-1.15,1.74-2.5S412.34,175.25,411,175.25Z"/><path class="cls-18" d="M417.61,175.55a1.42,1.42,0,0,0-.89-.3c-.7,0-1.08,1-1.25,1.37v3.83H415V176.2c0-.54-.07-.95-.09-1.23h.39l.16,1c.23-.44.62-1.16,1.38-1.16a1.78,1.78,0,0,1,1,.27Z"/><path class="cls-18" d="M421.14,182.82c-1.78,0-2.42-.58-2.42-1.5,0-.7.73-1.09,1.2-1.2-.39-.16-.77-.42-.77-.86a1.19,1.19,0,0,1,.48-.86,2,2,0,0,1-.64-1.54,1.94,1.94,0,0,1,2.05-2,2.14,2.14,0,0,1,.92.16c.44,0,.92-.1,1.49-.12l-.18.43h-.84a2,2,0,0,1-1.36,3.59,2.72,2.72,0,0,1-1.13-.28.88.88,0,0,0-.31.59c0,.35.23.53,1.63.68,1.82.2,2.25.76,2.25,1.37C423.51,182.31,422.45,182.82,421.14,182.82Zm-.76-2.56c-.76.16-1.14.64-1.14,1.06,0,.63.48,1.1,1.9,1.1s1.85-.48,1.85-1.15S422.2,180.42,420.38,180.26Zm.69-5a1.63,1.63,0,0,0,0,3.26c1.13,0,1.52-.75,1.52-1.66A1.42,1.42,0,0,0,421.07,175.25Z"/><path class="cls-18" d="M428.5,180.45c0-.13-.17-.5-.2-.69a1.8,1.8,0,0,1-1.59.82c-1,0-1.92-.46-1.92-1.56s.57-1.84,2.9-1.84h.57v-.5c0-.9-.35-1.43-1.26-1.43a3.78,3.78,0,0,0-1.79.47l-.18-.43a4.92,4.92,0,0,1,2-.44,1.6,1.6,0,0,1,1.77,1.77v2.16c0,.43.07,1,.14,1.67Zm-.23-2.86h-.41c-1.94,0-2.54.41-2.54,1.41,0,.7.48,1.18,1.39,1.18a1.7,1.7,0,0,0,1.56-.88Z"/><path class="cls-18" d="M434.17,177.83c0,1.31.4,2.35,1.74,2.35a3.38,3.38,0,0,0,1.69-.49l.15.44a4.51,4.51,0,0,1-1.94.45c-1.59,0-2.18-1.29-2.18-2.81,0-1.27.49-2.92,2.16-2.92s2.16,1.35,2.16,3Zm1.62-2.58c-1.05,0-1.56.86-1.63,2.18h3.31C437.47,176,437,175.25,435.79,175.25Z"/><path class="cls-18" d="M439.74,180.45v-7.87h.49v7.87Z"/><path class="cls-18" d="M447.45,180.58a2,2,0,0,1-1.64-.8v2.83h-.49v-6a11.1,11.1,0,0,0-.1-1.62h.4l.18.88a1.93,1.93,0,0,1,1.62-1c1.59,0,2.1,1.35,2.1,2.89S448.83,180.58,447.45,180.58Zm-.13-5.33a1.75,1.75,0,0,0-1.52,1.24v2.8a1.85,1.85,0,0,0,1.58.89c.95,0,1.61-.78,1.61-2.46C449,176.33,448.59,175.25,447.32,175.25Z"/><path class="cls-18" d="M453.91,175.55a1.42,1.42,0,0,0-.89-.3c-.7,0-1.08,1-1.26,1.37v3.83h-.49V176.2c0-.54-.07-.95-.09-1.23h.39l.16,1c.23-.44.62-1.16,1.38-1.16a1.78,1.78,0,0,1,1,.27Z"/><path class="cls-18" d="M455.68,177.83c0,1.31.39,2.35,1.73,2.35a3.45,3.45,0,0,0,1.7-.49l.14.44a4.43,4.43,0,0,1-1.93.45c-1.6,0-2.18-1.29-2.18-2.81,0-1.27.49-2.92,2.15-2.92s2.16,1.35,2.16,3Zm1.61-2.58c-1.05,0-1.55.86-1.63,2.18H459C459,176,458.49,175.25,457.29,175.25Z"/><path class="cls-18" d="M462.68,180.58a4.1,4.1,0,0,1-1.76-.34l.18-.43a3.28,3.28,0,0,0,1.63.37A1.13,1.13,0,0,0,464,179c0-.76-.68-1-1.42-1.2s-1.68-.55-1.68-1.46c0-1.08.87-1.49,2-1.49a4.9,4.9,0,0,1,1.55.36l-.18.44a3.11,3.11,0,0,0-1.48-.4c-.72,0-1.35.26-1.35,1.05,0,.62.58.81,1.26,1,.87.27,1.84.52,1.84,1.68S463.72,180.58,462.68,180.58Z"/><path class="cls-18" d="M466.56,177.83c0,1.31.4,2.35,1.74,2.35a3.41,3.41,0,0,0,1.69-.49l.14.44a4.43,4.43,0,0,1-1.93.45c-1.59,0-2.18-1.29-2.18-2.81,0-1.27.49-2.92,2.16-2.92s2.16,1.35,2.16,3Zm1.62-2.58c-1.06,0-1.56.86-1.63,2.18h3.31C469.86,176,469.38,175.25,468.18,175.25Z"/><path class="cls-18" d="M475.53,180.45V177.1c0-1-.19-1.85-1.39-1.85a1.78,1.78,0,0,0-1.52,1.22v4h-.49v-4.31c0-.46-.07-.71-.1-1.17h.4l.15.87a2,2,0,0,1,1.64-1c1.36,0,1.81.89,1.81,2.15v3.45Z"/><path class="cls-18" d="M480,181c-1.23-.23-1.84-.8-1.84-1.83v-3.77h-.83V175h.83v-1.36h.49V175h1.25v.4h-1.25v3.77c0,.78.42,1.19,1.48,1.37Z"/><path class="cls-18" d="M481.78,177.83c0,1.31.39,2.35,1.73,2.35a3.45,3.45,0,0,0,1.7-.49l.14.44a4.43,4.43,0,0,1-1.93.45c-1.6,0-2.18-1.29-2.18-2.81,0-1.27.49-2.92,2.15-2.92s2.16,1.35,2.16,3Zm1.61-2.58c-1.05,0-1.55.86-1.63,2.18h3.31C485.07,176,484.6,175.25,483.39,175.25Z"/></svg>